<?xml version="1.0" encoding="UTF-8"?>
<!-- Generated by Pixelmator Pro 3.3 -->
<svg width="512" height="512" viewBox="0 0 512 512" xmlns="http://www.w3.org/2000/svg" xmlns:xlink="http://www.w3.org/1999/xlink">
    <path id="Shape" fill="#3f3f3f" fill-rule="evenodd" stroke="none" d="M 8.107492 293.743652 C 2.81397 294.261597 2.723594 294.226257 3.184033 291.817627 C 3.442011 290.468109 6.724275 284.219543 10.477955 277.931976 C 14.231634 271.644409 20.408375 261.448486 24.204044 255.274384 C 30.42238 245.159546 31.471123 243.956757 34.802631 243.119263 C 36.836185 242.608032 42.884205 241.453186 48.24268 240.552887 C 53.601151 239.652618 64.067917 237.834778 71.502159 236.513214 C 78.936401 235.191681 91.76162 232.942841 100.002647 231.515778 C 108.243668 230.088745 121.176903 227.814178 128.743164 226.461182 C 136.309418 225.108185 147.642105 223.111298 153.92688 222.023712 C 160.21167 220.936096 165.814301 219.585693 166.377182 219.022827 C 167.075043 218.324951 167.009232 215.375275 166.170273 209.749725 C 165.493607 205.212372 164.067902 196.660004 163.002045 190.744415 C 161.936188 184.828857 160.348984 175.828857 159.47493 170.744415 C 158.600876 165.660004 157.002121 156.549988 155.922134 150.5 C 154.842148 144.450012 153.078003 134.549988 152.001831 128.5 C 150.925659 122.450012 148.919708 111.200012 147.544159 103.5 C 146.16861 95.799988 143.901077 83.203552 142.505203 75.507935 C 139.967239 61.515839 139.967239 61.515839 142.346939 57.007935 C 143.655762 54.528564 151.100891 41.8125 158.891663 28.75 C 167.283844 14.679138 173.665207 5 174.549789 5 C 175.370987 5 176.454407 6.012512 176.957397 7.25 C 177.460388 8.487488 178.591034 13.884888 179.46994 19.244232 C 180.348846 24.603546 182.169785 35.292358 183.516479 42.997131 C 184.863174 50.701935 187.088593 63.417023 188.461868 71.25293 C 189.835129 79.088806 192.070969 91.799988 193.430389 99.5 C 194.789825 107.200012 197.077789 120.25 198.514786 128.5 C 199.951782 136.75 202.014069 148.559906 203.097641 154.744232 C 204.181229 160.928558 206.169662 172.292358 207.516403 179.997131 C 208.863129 187.701904 211.135422 200.642029 212.565918 208.75293 C 214.290588 218.531677 215.010529 225.587463 214.702896 229.696106 C 214.401596 233.720062 213.178787 238.157745 211.214783 242.354736 C 209.551483 245.909119 206.250504 250.700043 203.879272 253.001251 C 201.508057 255.302429 197.482285 258.242126 194.933136 259.533875 C 192.383987 260.825623 185.393692 262.781128 179.399155 263.879395 C 173.404617 264.977661 161.975006 267.030579 154 268.441467 C 146.024994 269.852356 132.975006 272.134888 125 273.513733 C 117.025002 274.892609 105.550003 276.911407 99.5 278 C 93.449997 279.088593 82.083664 281.088562 74.241478 282.444427 C 66.399284 283.800293 54.924286 285.820251 48.741474 286.933228 C 42.558662 288.046204 32.099998 289.915161 25.5 291.086426 C 18.9 292.25769 11.073372 293.45343 8.107492 293.743652 Z"/>
    <path id="path1" fill="#6b6e70" fill-rule="evenodd" stroke="none" d="M 298.5 242.348969 C 295.75 242.615692 291.312347 242.402435 288.63858 241.875092 C 285.964783 241.347748 281.212799 239.621826 278.078583 238.039673 C 274.944366 236.45752 270.667847 233.267853 268.575165 230.951538 C 266.482513 228.635193 263.674408 224.346222 262.334961 221.420471 C 260.995514 218.49472 258.992157 211.015717 257.883118 204.800446 C 256.774048 198.585205 254.780502 187.424988 253.453018 180 C 252.125549 172.575012 249.896683 159.975006 248.5 152 C 247.103317 144.024994 244.867661 131.424988 243.531876 124 C 242.196091 116.575012 239.93924 103.975006 238.516663 96 C 237.094086 88.024994 235.658707 78.931183 235.32695 75.791504 C 234.762207 70.446838 234.875977 70.020691 237.111877 69.10553 C 238.425339 68.567932 243.884903 67.409393 249.244217 66.530975 C 254.603546 65.652588 265.289703 63.815796 272.991272 62.44928 C 280.692841 61.082733 293.298645 58.866669 301.004181 57.524689 C 308.709747 56.182678 321.64856 53.911774 329.757141 52.47821 C 337.865723 51.044647 349.225006 49.045044 355 48.034668 C 360.774994 47.024261 371.125 45.227875 378 44.042725 C 384.875 42.857544 394.975922 41.044586 400.446472 40.013885 C 406.924164 38.793457 410.990509 38.459717 412.106384 39.056915 C 413.105225 39.591492 414.092377 41.751831 414.473389 44.236969 C 414.832855 46.581635 416.249512 55.024994 417.621521 63 C 418.99353 70.975006 421.206085 83.575012 422.53833 91 C 423.870575 98.424988 426.084503 110.914398 427.45816 118.754211 C 428.831848 126.594055 431.10437 139.528961 432.508209 147.498444 C 433.912018 155.467957 436.175873 168.403564 437.53894 176.244232 C 438.902039 184.0849 440.745239 194.325012 441.634918 199 C 442.524628 203.674988 443.477417 209.396301 443.752289 211.71402 C 444.193939 215.438507 443.975952 216.043823 441.876007 216.924622 C 440.569214 217.472717 434.214661 218.849976 427.754791 219.985168 C 421.294952 221.120392 409.705536 223.153168 402.00058 224.502472 C 394.295624 225.851807 381.471039 228.10437 373.501556 229.508209 C 365.532043 230.912018 352.706665 233.160431 345.000732 234.504669 C 337.2948 235.848907 324.804688 238.054688 317.244965 239.406403 C 309.685242 240.758087 301.25 242.082275 298.5 242.348969 Z"/>
    <path id="path2" fill="#5ca8de" fill-rule="evenodd" stroke="none" d="M 310.278351 471.581573 C 306.492737 472.152802 305.954071 471.974915 305.062897 469.859283 C 304.516296 468.561676 302.923248 460.975006 301.522766 453 C 300.122284 445.024994 298.091095 433.549988 297.008972 427.5 C 295.926849 421.450012 294.157593 411.549988 293.077271 405.5 C 291.996979 399.450012 290.189026 389.21228 289.059631 382.749481 C 287.930237 376.286682 286.104889 365.936707 285.003296 359.749481 C 283.901703 353.562256 282.041901 343.100006 280.870392 336.5 C 279.018951 326.069519 278.891296 323.596375 279.894257 317.591125 C 280.52887 313.791229 282.243225 308.48645 283.703888 305.802734 C 285.164551 303.118988 288.263153 299.16864 290.58963 297.02417 C 292.916107 294.8797 297.010742 292.014771 299.688843 290.657654 C 302.366943 289.300568 308.370056 287.481171 313.029053 286.614563 C 317.68808 285.747955 327.799988 283.914001 335.5 282.539185 C 343.200012 281.164307 356.024994 278.896667 364 277.5 C 371.975006 276.103333 384.575012 273.872009 392 272.541565 C 399.424988 271.211121 411.125 269.12561 418 267.907043 C 424.875 266.688477 434.9216 264.94873 440.325775 264.040924 C 447.678558 262.805756 450.537476 262.672546 451.684906 263.511536 C 452.598694 264.179718 453.735504 267.838501 454.498352 272.566406 C 455.202393 276.929871 456.486633 284.325012 457.352203 289 C 458.217773 293.674988 460.060028 303.91394 461.446075 311.753235 C 462.832153 319.592529 465.092102 332.306183 466.468262 340.005798 C 467.844391 347.705414 469.878845 359.178528 470.989258 365.501648 C 472.09967 371.824738 474.119049 383.300873 475.476746 391.00415 C 476.834473 398.707458 478.917419 410.295349 480.10556 416.755066 C 481.293701 423.214783 482.489838 430.900085 482.763672 433.833527 C 483.115387 437.601501 482.856201 439.557922 481.880768 440.498657 C 481.121338 441.231018 473.640564 443.01123 465.256836 444.454651 C 456.873077 445.898071 443.709778 448.181702 436.005066 449.529358 C 428.300323 450.877014 415.694794 453.095154 407.992706 454.458527 C 400.290649 455.821899 387.353943 458.105164 379.244476 459.53244 C 371.13501 460.959717 359.549988 462.989929 353.5 464.044006 C 347.450012 465.098114 336.200012 467.08194 328.5 468.452545 C 320.799988 469.823181 312.60025 471.231232 310.278351 471.581573 Z"/>
    <path id="path3" fill="#003d7a" fill-rule="evenodd" stroke="none" d="M 88.475014 510.644867 C 83.848145 511.107422 82.16806 510.90744 81.234909 509.783051 C 80.566582 508.977753 76.873352 490.470734 73.027718 468.656342 C 69.182083 446.841919 62.608467 409.532654 58.419678 385.746887 C 54.230892 361.96109 50.735371 340.25 50.651852 337.5 C 50.5 332.5 50.5 332.5 56 331.252258 C 59.025002 330.56601 86.982811 325.521729 118.128471 320.042786 C 149.274139 314.563843 180.028824 309.165588 186.472244 308.046753 C 197.175278 306.188171 198.773544 306.134613 204.969864 307.426575 C 208.700134 308.204346 213.94545 309.963684 216.626099 311.336182 C 219.306747 312.708679 223.389664 315.782013 225.699249 318.165833 C 228.008835 320.549622 231.061844 325.049316 232.483719 328.165161 C 233.905579 331.281006 235.926636 338.480988 236.974945 344.165161 C 238.02327 349.849304 240.501328 363.834229 242.481766 375.242706 C 244.462189 386.651184 248.046112 407.12619 250.446045 420.742706 C 252.845963 434.359222 256.059937 452.826385 257.588226 461.780823 C 260.077637 476.36673 260.208252 478.220337 258.842896 479.585693 C 257.868347 480.560242 248.425919 482.700592 232.653687 485.522095 C 219.08783 487.948914 197.642761 491.758759 184.997986 493.988403 C 172.353195 496.218048 146.818283 500.742371 128.253723 504.04245 C 109.689178 507.342529 91.788757 510.313599 88.475014 510.644867 Z"/>
</svg>
