<?xml version="1.0"?>
<svg width="512" height="511.99" xmlns="http://www.w3.org/2000/svg" xmlns:svg="http://www.w3.org/2000/svg" clip-rule="evenodd" fill-rule="evenodd">
 <g class="layer">
  <title>Layer 1</title>
  <path d="m256,0c70.68,0 134.68,28.67 181.01,74.99c46.32,46.32 74.99,110.32 74.99,181s-28.67,134.69 -74.99,181.01c-46.33,46.33 -110.33,74.99 -181.01,74.99c-70.68,0 -134.68,-28.66 -181.01,-74.99c-46.32,-46.32 -74.99,-110.33 -74.99,-181.01c0,-70.68 28.67,-134.68 74.99,-181c46.33,-46.32 110.33,-74.99 181.01,-74.99z" fill="#FC4032" fill-rule="nonzero" id="svg_1"/>
  <path d="m381.4,252l0,10.31c-1,20.08 -17.3,32.38 -47.38,32.38l-162.04,1c-26.08,1 -41.38,-15.26 -41.38,-33.38l0,-12.63c1,-18.12 13.26,-35.38 43.38,-34.38l161.04,-2c35.12,1 46.38,16.65 46.38,38.7z" fill="#fff" id="svg_2" transform="matrix(1 0 0 1 0 0)"/>
 </g>
</svg>