<svg height="128" id="Layer_1" version="1.1" width="128" xml:space="preserve" xmlns="http://www.w3.org/2000/svg"><g id="real_x5F_earth"><circle cx="64.072" cy="63.499" fill="#2F71B1" r="53.5"/><path d="M64.072 109.999c-28.37 0-51.569-22.086-53.374-50a54.07 54.07 0 0 0-.126 3.5c0 29.547 23.953 53.5 53.5 53.5s53.5-23.953 53.5-53.5c0-1.177-.052-2.342-.126-3.5-1.805 27.914-25.004 50-53.374 50z" opacity=".1"/><path d="m92.416 18.13-2.562-.951-4.565 1.143L82 20.742v1.275l-4.386 2.671.665 3.665a9.484 9.484 0 0 1-.331-.929L77.521 26H73v2.984l-2.687.868.856 5.29-1.019.175 1.258 1.295.027.165.09-.045 1.562 1.608L70 39.948V47h1.826l.039.05c-1.748 1.986-3.457 3.959-5.117 6.024l-.176.218-2.84 6.733.837.947-1.581 2.383 2.582 6.144 6.728 7.617 2.552-2.193 1.042 1.184 3.032-2.293.248.186h2.416l.392.532-.997 3.434 2.138 2.517-.104 3.599 1.215 2.404-.815 1.777-.084.359c-.104 1.693-.333 3.443-.333 5.209v.352l.245.331c.479 1.321 1.041 2.687 1.464 4.007.286.895.572 1.79.876 2.688l.415 3.378V108h4.5l2.246-2h2.728l5.488-5.576-.454-1.127 3.143-2.603-1.938-2.132.617-.509 2.596-1.581 1.305-2.452L105 86.977v-5.546l1.879-3.287 2.361-2.637 2.76-6.688v-3.694l1.726-1.249L116 61.038v-1.18l1.323-1.464c-1.609-16.99-11.163-31.658-24.907-40.264zm-9.283 26.499-1.626-.421-2.58.309.172-.42 1.807-1.118.248-.556.929-.208 1.104 1.253.415.208-.469.953zm4.971 2.705-.399.458-1.204-1.211 1.673-.473.949 1.074-1.019.152zm4.492.007.118-.867c.166.237.826 1.158.826 1.158l-.944-.291z" opacity=".1"/><path d="m54.864 10.805-3.132.862-.114-.195c-23.538 5.615-41.045 26.77-41.045 52.027 0 .344.019.683.026 1.025l4.643 2.751 3.915 1.057 1.598 2.009 3.725 2.712.882-.119-.843 2.175-1.745 2.56.537 1.271-1.062 3.571 4.239 7.74 3.759 3.313 1.104 1.561-.197 4.638 1.145 2.588-.822 3.561a53.476 53.476 0 0 0 11.031 6.55l.785-.609-.465-1.315 1.041-1.032.436-1.151 2.632-.919 2.693-6.71-.501-1.133.352-.514 3.279-.745 2.249-5.087-.389-4.399 2.318-3.281.633-5.372-1.263-.626a722.23 722.23 0 0 1-9.396-4.772L45.146 71.3l-2.925-.661-1.8-4.838-4.848.548-4.08-3.049-4.508 4.04a10.413 10.413 0 0 1-.654-.152L26 66.057v-4.363l-2.488.13.016-.3c.044-.812.094-1.734.173-2.12L24.197 57h-4.896l-1.749 2.375-.063.033-.168-.094-.099-1.231.252-1.695L19.342 55h3.292l.304-1.057.546.12 4.917 6.062.77-8.719 3.62-3.02 1.296-3.146 2.623-1.059 1.391-1.968 3.562-.08 2.859-3.352.868 4.577 4.982-7.516-1.873-1.41.563-2.194-2.328-2.4-.101-.036.102-.351L45.54 27H46v-1.082l.61.414 3.49-3.126 3.345 6.919 3.869-2.274 1.888-3.023a70.232 70.232 0 0 0 5.87-2.18l-.392 2.632 3.614 2.33 5.453-3.605-3.818-4.327-1.182.671 3.143-8.04-5.755-2.256c-.685-.026-1.37-.052-2.062-.052a53.53 53.53 0 0 0-9.209.804zM34.436 29.048l-1.339.553-2.583-1.078 3.654-2.151.4-.372H35.8l-1.442 2.521.078.527zm16.393-8.281-3.135-1.279-1.166-2.369-1.037-.123 1.206-.273.208-.101c.046-.022.093-.04.139-.062l4.881 3.217-1.096.99z" opacity=".1"/><path d="m103.416 91.05.609-1.146L103 87.365v-6.466l2.248-3.932 2.275-2.539L110 68.421v-1.618c-1 .153-2.219.292-3.409.377l2.549-2.456 3.193-2.311L114 60.335v-2.309c0-.77-.596-1.541-1.008-2.311l-1.525 1.848-1.426-1.385-2.041-1.39v-3l2.403 2.424 2.476-.345c1.069.971 2.187 1.9 3.125 3.005l1.201-1.329c-1.979-13.317-8.837-25.035-18.706-33.283l-.393.65-2.039 2.586L93.413 23h2.654l1.207-1.641c-.014-.011-.027-.064-.041-.074l-4.841-1.03-2.654-.984-3.582.896L84 21.754v1.387l-4.172 2.541.67 3.695 2.175-1.615 1.389 1.615 1.613.924 1.014-2.769-.619-1.619.612-.995L88.92 23h1.02L88 24.989v2.081c1-.255 2.358-.343 3.317-.462l-2.421 1.847-.09 1.157-2.903 2.539L83 31.459v-1.848l-1.531 1.349.514 2.04h-2.249l-1.223 1.656-1.53 1.518-2.753.472 1.629 1.678.412 1.676h-2.04L72 41.161V45h.798l1.124 1.43 2.55-1.189 1.02-2.502 1.837-1.137.406-.911 3.066-.686 1.629 1.851 1.84.923-1.02 2.079 1.632-.46.817-2.083L85.655 40h.82l2.04 1.617.406 2.316 1.837 2.079.409-3.005 1.023-.461c1.009 1.048 1.799 2.287 2.649 3.466l3.063.23 1.84 1.154-.817 1.069L97.087 50h-2.654l-3.471-1.069-1.834.273-1.328 1.521-3.776-3.798-2.654-.688-3.877.463-3.471.925c-1.947 2.207-3.872 4.407-5.715 6.699l-2.243 5.317 1.02 1.155-1.837 2.769 2.04 4.853c1.736 1.963 3.471 3.926 5.204 5.891l2.553-2.195 1.121 1.274 2.756-2.082.919.692h2.758l1.579 2.14-.971 3.349 1.941 2.281-.104 3.855 1.431 2.797-1.023 2.32c-.102 1.7-.203 3.389-.203 5.089.836 2.303 1.505 4.609 2.295 6.929l.457 3.704V106h1.738l2.246-2h2.651l3.982-4.045-.51-1.266 2.654-2.199-1.941-2.136 2.347-1.934 2.249-1.37zm-4.903-37.414.614-.691 2.347 2.654 2.756 5.89 1.632 1.848-.817 2.078 1.566 1.776a31.78 31.78 0 0 1-2.174.078c-1.3-2.731-2.279-5.462-3.269-8.319l-1.733-1.963-.922-3.351zM69.299 13.439zM74.811 32.846l-.817-2.081-1.432.463.412 2.539z" fill="#EDEDED"/><path d="m76 32.38-.596 2.775 2.152-.463 1.585-1.615-1.452-1.384C77.209 30.415 76.634 30 76.034 28H75v1.378l1 .924v2.078zM67.054 22.915l-.206 1.382 1.431.923 2.446-1.617-1.222-1.387-1.635.928zM69.299 13.439l-5.308-2.08-6.12.692-7.554 2.078-1.22 1.387L54 18.75v1.848l-2.046 1.848 2.347 4.855 1.577-.927 2.019-3.233c3.153-.975 5.967-2.08 8.965-3.466l2.437-6.236zM31.539 21.754s-1.048.205-1.712.346C18.596 31.4 11.21 45.179 10.412 60.701c.562.973 1.329 2.176 1.329 2.176l4.286 2.539 4.286 1.157 1.839 2.311 2.856 2.078 1.701-.23 1.291.551v.373l-1.7 4.389-1.26 1.848.391.927-1.029 3.46 3.67 6.702 3.671 3.235 1.633 2.309-.206 4.853 1.225 2.769-1.224 5.306a53.74 53.74 0 0 0 7.082 4.22c.368-.281.672-.516.672-.516l-.407-1.152 1.632-1.618.613-1.618 2.654-.927 2.04-5.084-.612-1.382 1.426-2.078 3.063-.696 1.634-3.696-.409-4.617 2.449-3.466.409-3.466c-3.351-1.662-6.674-3.373-10-5.083l-1.634-3.235-3.061-.692-1.633-4.387-4.082.461-3.401-2.539L28 69.115v.51c-1-.321-2.336-.365-3.326-.973L24 66.343v-2.542l-2.66.14c.205-1.618.197-3.941.403-4.941h-1.43l-1.427 1.938-1.43.736-2.042-1.129-.204-2.531.409-2.739L18.681 53h2.449l.407-1.415 3.061.677 2.246 2.768.409-4.627 3.878-3.235 1.429-3.467 2.857-1.155 1.633-2.309 3.673-.083L42.561 38h-5.512l3.47-2h2.447l3.471-1.58.409-1.593-1.226-1.263-1.429-.516.409-1.411-1.02-2.092-2.45.915.409-1.85-2.857-1.62-2.244 3.924.203 1.387-2.244.927-1.43 3.002-.612-2.772-3.878-1.618-.613-2.078 5.103-3.005 2.246-2.078.204-2.541-1.224-.694-.714-.101c-.457.317-.912.636-1.359.966l-.581 1.445zM42.967 25H44v-1.398l-1.739-.924-1.484 1.045z" fill="#EDEDED"/><path d="M34.6 24h2.042l1.021-2.047c.88-.622 1.756-1.117 2.653-1.717l2.042.76c1.36.924 2.72 1.881 4.082 2.804l2.043-1.83-2.247-.916-1.021-2.076-3.877-.46-.204-1.155-1.837.464-.815 1.617-1.021-2.08-.407.924.204 2.31-1.633 1.124L34.6 24zM45.622 13.439l-1.664.241a54.015 54.015 0 0 0-3.115 1.362l-.527.706 2.651.461 1.021-.923 2.042-.462c1.398-.68 2.802-1.138 4.286-1.618l-.814-1.386-.217.031a53.522 53.522 0 0 0-3.035.962l-.628.626zM46.439 38.157l1.225-1.848-1.838-1.385z" fill="#EDEDED"/><path d="M117.903 120.944a3.861 3.861 0 0 1-2.74-1.135l-13.171-13.17c-1.513-1.513 3.966-6.992 5.48-5.48l13.171 13.17a3.875 3.875 0 0 1-2.74 6.615z" fill="#AD5D31"/><path d="M107.473 101.16c-1.513-1.513-6.993 3.967-5.48 5.48l2.438 2.438a23.145 23.145 0 0 0 5.48-5.48l-2.438-2.438z" opacity=".1"/><circle cx="91.172" cy="90.339" fill="#253B4B" opacity=".5" r="16.542"/><path d="M91.172 68.822c-11.883 0-21.517 9.633-21.517 21.517s9.633 21.517 21.517 21.517c11.883 0 21.517-9.633 21.517-21.517s-9.633-21.517-21.517-21.517zm0 38.059c-9.136 0-16.542-7.406-16.542-16.542 0-9.136 7.406-16.542 16.542-16.542 9.136 0 16.542 7.406 16.542 16.542.001 9.136-7.406 16.542-16.542 16.542z" fill="#F2BA34"/><path d="M76.083 91.792c0-9.136 7.406-16.542 16.542-16.542 4.198 0 8.029 1.567 10.946 4.144a16.498 16.498 0 0 0-12.398-5.597c-9.136 0-16.542 7.406-16.542 16.542 0 4.938 2.166 9.367 5.597 12.398a16.47 16.47 0 0 1-4.145-10.945zM119.331 113.017a36.356 36.356 0 0 1-5.48 5.48l1.312 1.312c.757.756 1.748 1.135 2.74 1.135s1.983-.378 2.74-1.135a3.875 3.875 0 0 0 0-5.48l-1.312-1.312z" opacity=".1"/></g></svg>